<?xml version="1.0"?><svg height="32" id="svg8" version="1.1" viewBox="0 0 8.4666665 8.4666669" width="32" xmlns="http://www.w3.org/2000/svg" xmlns:cc="http://creativecommons.org/ns#" xmlns:dc="http://purl.org/dc/elements/1.1/" xmlns:inkscape="http://www.inkscape.org/namespaces/inkscape" xmlns:rdf="http://www.w3.org/1999/02/22-rdf-syntax-ns#" xmlns:sodipodi="http://sodipodi.sourceforge.net/DTD/sodipodi-0.dtd" xmlns:svg="http://www.w3.org/2000/svg"><defs id="defs2"/><g id="layer1" transform="translate(0,-288.53332)"><path d="M 7.8984375 1.0039062 A 1.0001001 1.0001001 0 0 0 7.1679688 1.4472656 L 3.1660156 7.4472656 A 1.0001001 1.0001001 0 0 0 2.9960938 8.0019531 L 2.9960938 16.003906 A 1.0001001 1.0001001 0 0 0 4.0019531 17 L 6.9980469 17 L 6.9980469 30 A 1.0001001 1.0001001 0 0 0 8.0019531 31.003906 L 23.998047 31.003906 A 1.0001001 1.0001001 0 0 0 25.001953 30 L 25.001953 17 L 28 17 A 1.0001001 1.0001001 0 0 0 29.003906 16.003906 L 29.003906 8.0019531 A 1.0001001 1.0001001 0 0 0 28.833984 7.4472656 L 24.832031 1.4472656 A 1.0001001 1.0001001 0 0 0 23.998047 1.0039062 L 19.998047 1.0039062 A 1.0001001 1.0001001 0 0 0 19.296875 1.2910156 L 15.996094 4.5839844 L 12.705078 1.2910156 A 1.0001001 1.0001001 0 0 0 12.003906 1.0039062 L 8.0019531 1.0039062 A 1.0001001 1.0001001 0 0 0 7.8984375 1.0039062 z M 8.5332031 2.9960938 L 11.582031 2.9960938 L 15.294922 6.7089844 A 1.0001001 1.0001001 0 0 0 16.705078 6.7089844 L 20.410156 2.9960938 L 23.466797 2.9960938 L 27.003906 8.3046875 L 27.003906 15 L 25.001953 15 L 25.001953 12.001953 A 1.0001001 1.0001001 0 0 0 24.951172 11.707031 A 1.0001001 1.0001001 0 0 0 24.914062 11.611328 A 1.0001001 1.0001001 0 0 0 24.869141 11.523438 A 1.0001001 1.0001001 0 0 0 24.818359 11.441406 A 1.0001001 1.0001001 0 0 0 24.759766 11.361328 A 1.0001001 1.0001001 0 0 0 24.529297 11.167969 A 1.0001001 1.0001001 0 0 0 24.353516 11.080078 A 1.0001001 1.0001001 0 0 0 24.257812 11.048828 A 1.0001001 1.0001001 0 0 0 24.154297 11.027344 A 1.0001001 1.0001001 0 0 0 24.056641 11.011719 A 1.0001001 1.0001001 0 0 0 23.761719 11.042969 A 1.0001001 1.0001001 0 0 0 23.482422 11.160156 A 1.0001001 1.0001001 0 0 0 23.400391 11.210938 A 1.0001001 1.0001001 0 0 0 23.253906 11.345703 A 1.0001001 1.0001001 0 0 0 23.193359 11.425781 A 1.0001001 1.0001001 0 0 0 23.134766 11.507812 A 1.0001001 1.0001001 0 0 0 23.089844 11.595703 A 1.0001001 1.0001001 0 0 0 23.001953 11.986328 A 1.0001001 1.0001001 0 0 0 23.001953 12.001953 L 23.001953 16.003906 A 1.0001001 1.0001001 0 0 0 23.001953 16.099609 L 23.001953 29.001953 L 8.9980469 29.001953 L 8.9980469 16.070312 A 1.0001001 1.0001001 0 0 0 8.9980469 16.003906 L 8.9980469 12.001953 A 1.0001001 1.0001001 0 0 0 8.9902344 11.898438 A 1.0001001 1.0001001 0 0 0 8.9765625 11.802734 A 1.0001001 1.0001001 0 0 0 8.9179688 11.611328 A 1.0001001 1.0001001 0 0 0 8.8730469 11.523438 A 1.0001001 1.0001001 0 0 0 8.7558594 11.359375 A 1.0001001 1.0001001 0 0 0 8.3496094 11.080078 A 1.0001001 1.0001001 0 0 0 8.2539062 11.048828 A 1.0001001 1.0001001 0 0 0 8.0527344 11.011719 A 1.0001001 1.0001001 0 0 0 7.9570312 11.011719 A 1.0001001 1.0001001 0 0 0 7.8535156 11.019531 A 1.0001001 1.0001001 0 0 0 7.6621094 11.070312 A 1.0001001 1.0001001 0 0 0 7.5742188 11.109375 A 1.0001001 1.0001001 0 0 0 7.484375 11.160156 A 1.0001001 1.0001001 0 0 0 7.3222656 11.279297 A 1.0001001 1.0001001 0 0 0 7.2558594 11.345703 A 1.0001001 1.0001001 0 0 0 7.1894531 11.425781 A 1.0001001 1.0001001 0 0 0 7.1386719 11.507812 A 1.0001001 1.0001001 0 0 0 7.0859375 11.595703 A 1.0001001 1.0001001 0 0 0 7.0273438 11.787109 A 1.0001001 1.0001001 0 0 0 7.0058594 11.884766 A 1.0001001 1.0001001 0 0 0 6.9980469 11.988281 A 1.0001001 1.0001001 0 0 0 6.9980469 12.001953 L 6.9980469 15 L 4.9980469 15 L 4.9980469 8.3046875 L 8.5332031 2.9960938 z " id="path1529" style="color:#000000;font-style:normal;font-variant:normal;font-weight:normal;font-stretch:normal;font-size:medium;line-height:normal;font-family:sans-serif;font-variant-ligatures:normal;font-variant-position:normal;font-variant-caps:normal;font-variant-numeric:normal;font-variant-alternates:normal;font-feature-settings:normal;text-indent:0;text-align:start;text-decoration:none;text-decoration-line:none;text-decoration-style:solid;text-decoration-color:#000000;letter-spacing:normal;word-spacing:normal;text-transform:none;writing-mode:lr-tb;direction:ltr;text-orientation:mixed;dominant-baseline:auto;baseline-shift:baseline;text-anchor:start;white-space:normal;shape-padding:0;clip-rule:nonzero;display:inline;overflow:visible;visibility:visible;opacity:1;isolation:auto;mix-blend-mode:normal;color-interpolation:sRGB;color-interpolation-filters:linearRGB;solid-color:#000000;solid-opacity:1;vector-effect:none;fill:#000000;fill-opacity:1;fill-rule:nonzero;stroke:none;stroke-width:2;stroke-linecap:round;stroke-linejoin:round;stroke-miterlimit:4;stroke-dasharray:none;stroke-dashoffset:0;stroke-opacity:1;color-rendering:auto;image-rendering:auto;shape-rendering:auto;text-rendering:auto;enable-background:accumulate" transform="matrix(0.26458333,0,0,0.26458333,0,288.53332)"/></g></svg>